<svg width="32" height="31" viewBox="0 0 32 31" fill="none" xmlns="http://www.w3.org/2000/svg">
<g filter="url(#filter0_d_3867_5212)">
<path d="M27 22H10L5 1H2M6 5H30L27 18H9L6 5Z" stroke="white" stroke-width="2" stroke-linecap="round" stroke-linejoin="round"/>
<path d="M25 28C26.1046 28 27 27.1046 27 26C27 24.8954 26.1046 24 25 24C23.8954 24 23 24.8954 23 26C23 27.1046 23.8954 28 25 28Z" stroke="white" stroke-width="2" stroke-linecap="round" stroke-linejoin="round"/>
<path d="M12 28C13.1046 28 14 27.1046 14 26C14 24.8954 13.1046 24 12 24C10.8954 24 10 24.8954 10 26C10 27.1046 10.8954 28 12 28Z" stroke="white" stroke-width="2" stroke-linecap="round" stroke-linejoin="round"/>
</g>
<defs>
<filter id="filter0_d_3867_5212" x="-3" y="0" width="38" height="37" filterUnits="userSpaceOnUse" color-interpolation-filters="sRGB">
<feFlood flood-opacity="0" result="BackgroundImageFix"/>
<feColorMatrix in="SourceAlpha" type="matrix" values="0 0 0 0 0 0 0 0 0 0 0 0 0 0 0 0 0 0 127 0" result="hardAlpha"/>
<feOffset dy="4"/>
<feGaussianBlur stdDeviation="2"/>
<feComposite in2="hardAlpha" operator="out"/>
<feColorMatrix type="matrix" values="0 0 0 0 0 0 0 0 0 0 0 0 0 0 0 0 0 0 0.25 0"/>
<feBlend mode="normal" in2="BackgroundImageFix" result="effect1_dropShadow_3867_5212"/>
<feBlend mode="normal" in="SourceGraphic" in2="effect1_dropShadow_3867_5212" result="shape"/>
</filter>
</defs>
</svg>
