<svg width="32" height="32" viewBox="0 0 32 32" fill="none" xmlns="http://www.w3.org/2000/svg">
<path d="M28 6.6665H4C3.64638 6.6665 3.30724 6.80698 3.05719 7.05703C2.80714 7.30708 2.66667 7.64622 2.66667 7.99984V13.3332H3.85733C5.18533 13.3332 6.41733 14.2412 6.63067 15.5518C6.69566 15.9346 6.67635 16.3268 6.57409 16.7013C6.47183 17.0758 6.28908 17.4235 6.03859 17.72C5.78811 18.0166 5.47592 18.2549 5.12383 18.4184C4.77173 18.5819 4.3882 18.6666 4 18.6665H2.66667V23.9998C2.66667 24.3535 2.80714 24.6926 3.05719 24.9426C3.30724 25.1927 3.64638 25.3332 4 25.3332H28C28.3536 25.3332 28.6928 25.1927 28.9428 24.9426C29.1929 24.6926 29.3333 24.3535 29.3333 23.9998V18.6665H28C27.6118 18.6666 27.2283 18.5819 26.8762 18.4184C26.5241 18.2549 26.2119 18.0166 25.9614 17.72C25.7109 17.4235 25.5282 17.0758 25.4259 16.7013C25.3237 16.3268 25.3043 15.9346 25.3693 15.5518C25.5827 14.2412 26.8147 13.3332 28.1427 13.3332H29.3333V7.99984C29.3333 7.64622 29.1929 7.30708 28.9428 7.05703C28.6928 6.80698 28.3536 6.6665 28 6.6665ZM12 11.9998C12.3536 11.9998 12.6928 12.1403 12.9428 12.3904C13.1929 12.6404 13.3333 12.9795 13.3333 13.3332C13.3333 13.6868 13.1929 14.0259 12.9428 14.276C12.6928 14.526 12.3536 14.6665 12 14.6665C11.6464 14.6665 11.3072 14.526 11.0572 14.276C10.8071 14.0259 10.6667 13.6868 10.6667 13.3332C10.6667 12.9795 10.8071 12.6404 11.0572 12.3904C11.3072 12.1403 11.6464 11.9998 12 11.9998ZM10.9333 20.5332L18.9333 9.8665L21.0667 11.4665L13.0667 22.1332L10.9333 20.5332ZM20 19.9998C19.6464 19.9998 19.3072 19.8594 19.0572 19.6093C18.8071 19.3593 18.6667 19.0201 18.6667 18.6665C18.6667 18.3129 18.8071 17.9737 19.0572 17.7237C19.3072 17.4736 19.6464 17.3332 20 17.3332C20.3536 17.3332 20.6928 17.4736 20.9428 17.7237C21.1929 17.9737 21.3333 18.3129 21.3333 18.6665C21.3333 19.0201 21.1929 19.3593 20.9428 19.6093C20.6928 19.8594 20.3536 19.9998 20 19.9998Z" fill="white"/>
</svg>
