<svg width="26" height="26" viewBox="0 0 26 26" fill="none" xmlns="http://www.w3.org/2000/svg">
<path d="M9 1H2.33333C1.59695 1 1 1.59695 1 2.33333V9C1 9.73638 1.59695 10.3333 2.33333 10.3333H9C9.73638 10.3333 10.3333 9.73638 10.3333 9V2.33333C10.3333 1.59695 9.73638 1 9 1Z" stroke="white" stroke-width="2" stroke-linecap="round" stroke-linejoin="round"/>
<path d="M9 15.6665H2.33333C1.59695 15.6665 1 16.2635 1 16.9998V23.6665C1 24.4029 1.59695 24.9998 2.33333 24.9998H9C9.73638 24.9998 10.3333 24.4029 10.3333 23.6665V16.9998C10.3333 16.2635 9.73638 15.6665 9 15.6665Z" stroke="white" stroke-width="2" stroke-linecap="round" stroke-linejoin="round"/>
<path d="M23.6667 1H17C16.2636 1 15.6667 1.59695 15.6667 2.33333V9C15.6667 9.73638 16.2636 10.3333 17 10.3333H23.6667C24.403 10.3333 25 9.73638 25 9V2.33333C25 1.59695 24.403 1 23.6667 1Z" stroke="white" stroke-width="2" stroke-linecap="round" stroke-linejoin="round"/>
<path d="M23.6667 15.6665H17C16.2636 15.6665 15.6667 16.2635 15.6667 16.9998V23.6665C15.6667 24.4029 16.2636 24.9998 17 24.9998H23.6667C24.403 24.9998 25 24.4029 25 23.6665V16.9998C25 16.2635 24.403 15.6665 23.6667 15.6665Z" stroke="white" stroke-width="2" stroke-linecap="round" stroke-linejoin="round"/>
</svg>
