<svg width="28" height="28" viewBox="0 0 28 28" fill="none" xmlns="http://www.w3.org/2000/svg">
<path d="M24.6667 7.33317H23.0547C23.2502 6.68488 23.3442 6.01022 23.3333 5.33317C23.3333 2.75984 21.24 0.666504 18.6667 0.666504C16.504 0.666504 15.06 2.6425 14.128 4.77984C13.2093 2.75984 11.692 0.666504 9.33333 0.666504C6.76 0.666504 4.66667 2.75984 4.66667 5.33317C4.66667 6.12784 4.772 6.78517 4.94533 7.33317H3.33333C1.86267 7.33317 0.666668 8.52917 0.666668 9.99984V12.6665C0.666668 14.1372 1.86267 15.3332 3.33333 15.3332V24.6665C3.33333 26.1372 4.52933 27.3332 6 27.3332H22C23.4707 27.3332 24.6667 26.1372 24.6667 24.6665V15.3332C26.1373 15.3332 27.3333 14.1372 27.3333 12.6665V9.99984C27.3333 8.52917 26.1373 7.33317 24.6667 7.33317ZM18.6667 3.33317C19.7693 3.33317 20.6667 4.2305 20.6667 5.33317C20.6667 7.33317 19.832 7.33317 19.3333 7.33317H16.0293C16.7107 5.23184 17.7 3.33317 18.6667 3.33317ZM7.33333 5.33317C7.33333 4.2305 8.23067 3.33317 9.33333 3.33317C10.5173 3.33317 11.6187 5.3665 12.264 7.33317H8.66667C8.168 7.33317 7.33333 7.33317 7.33333 5.33317ZM3.33333 9.99984H12.6667V12.6665H3.33333V9.99984ZM6 24.6665V15.3332H12.6667V24.6665H6ZM22 24.6665H15.3333V15.3332H22V24.6665ZM15.3333 12.6665V10.1132L15.356 9.99984H24.6667L24.668 12.6665H15.3333Z" fill="white"/>
</svg>
