<svg width="28" height="28" viewBox="0 0 28 28" fill="none" xmlns="http://www.w3.org/2000/svg">
<path d="M2 15.3339H3.33333V24.6673C3.33333 26.1379 4.52933 27.3339 6 27.3339H22C23.4707 27.3339 24.6667 26.1379 24.6667 24.6673V15.3339H26C26.2637 15.3339 26.5214 15.2556 26.7406 15.1091C26.9598 14.9626 27.1307 14.7544 27.2316 14.5108C27.3325 14.2672 27.3589 13.9992 27.3074 13.7406C27.256 13.4819 27.1291 13.2444 26.9427 13.0579L14.9427 1.05793C14.8189 0.933999 14.672 0.835682 14.5103 0.768601C14.3485 0.70152 14.1751 0.666992 14 0.666992C13.8249 0.666992 13.6515 0.70152 13.4897 0.768601C13.328 0.835682 13.181 0.933999 13.0573 1.05793L1.05733 13.0579C0.87092 13.2444 0.743978 13.4819 0.692555 13.7406C0.641131 13.9992 0.667535 14.2672 0.768429 14.5108C0.869322 14.7544 1.04017 14.9626 1.25939 15.1091C1.4786 15.2556 1.73633 15.3339 2 15.3339ZM11.3333 24.6673V18.0006H16.6667V24.6673H11.3333ZM14 3.88593L22 11.8859V18.0006L22.0013 24.6673H19.3333V18.0006C19.3333 16.5299 18.1373 15.3339 16.6667 15.3339H11.3333C9.86266 15.3339 8.66667 16.5299 8.66667 18.0006V24.6673H6V11.8859L14 3.88593Z" fill="white"/>
</svg>
